<?xml version="1.0" standalone="no"?><!DOCTYPE svg PUBLIC "-//W3C//DTD SVG 1.1//EN" "http://www.w3.org/Graphics/SVG/1.1/DTD/svg11.dtd"><svg t="1536223868081" class="icon" style="" viewBox="0 0 1024 1024" version="1.1" xmlns="http://www.w3.org/2000/svg" p-id="2185" xmlns:xlink="http://www.w3.org/1999/xlink" width="200" height="200"><defs><style type="text/css">* { text-shadow: transparent 0px 0px 0px, rgba(0, 0, 0, 0.68) 0px 0px 0px !important; }
</style></defs><path d="M970.752 215.04c-8.192-6.144-18.432-8.192-28.672-8.192l-94.208 18.432V137.216c0-12.288-6.144-24.576-16.384-30.72-10.24-6.144-24.576-6.144-34.816 0L512 284.672V921.6h6.144l438.272-94.208c16.384-2.048 26.624-16.384 26.624-34.816V241.664c0-10.24-4.096-20.48-12.288-26.624z m-425.984 129.024L798.72 184.32v471.04l-253.952 159.744v-471.04z m67.584 501.76L831.488 716.8c10.24-6.144 16.384-16.384 16.384-28.672V286.72l81.92-14.336v491.52l-317.44 81.92z" p-id="2186"></path><path d="M40.96 241.664v550.912c0 16.384 12.288 30.72 26.624 34.816L505.856 921.6h6.144V284.672L227.328 106.496c-10.24-6.144-22.528-6.144-34.816 0-8.192 6.144-16.384 18.432-16.384 30.72V225.28l-96.256-18.432c-10.24-2.048-20.48 0-28.672 8.192-6.144 6.144-10.24 16.384-10.24 26.624z m438.272 573.44L225.28 655.36V184.32l253.952 159.744v471.04zM94.208 765.952v-491.52l81.92 14.336v401.408c0 12.288 6.144 22.528 16.384 28.672l219.136 126.976-317.44-79.872z" p-id="2187"></path></svg>