<?xml version="1.0" standalone="no"?><!DOCTYPE svg PUBLIC "-//W3C//DTD SVG 1.1//EN" "http://www.w3.org/Graphics/SVG/1.1/DTD/svg11.dtd"><svg t="1536223853446" class="icon" style="" viewBox="0 0 1024 1024" version="1.1" xmlns="http://www.w3.org/2000/svg" p-id="1510" xmlns:xlink="http://www.w3.org/1999/xlink" width="200" height="200"><defs><style type="text/css">* { text-shadow: transparent 0px 0px 0px, rgba(0, 0, 0, 0.68) 0px 0px 0px !important; }
</style></defs><path d="M811.04392 461.007502l124.213213 27.792271a24.59824 24.59824 0 0 1 19.233188 24.007235l49.192481 438.014277c0 7.922077-3.810037 15.35315-10.2421 19.980195a24.59724 24.59724 0 0 1-22.202217 3.334033l-236.319308-62.893614-223.732185 73.79472-217.947128-73.79472-241.120355 63.165617a24.60024 24.60024 0 0 1-32.295315-23.364228l49.19248-438.18728c0.005-11.533113 8.021078-21.51821 19.282188-24.007234l130.01727-28.70328 33.057323 67.712661-107.337048 23.934234-37.386365 330.573228c106.45004-29.266286 168.631647-43.680427 186.587822-43.290423 17.955175 0.371004 90.759886 24.429239 218.516134 72.166705 132.769297-48.10847 207.172023-72.166705 223.163179-72.166705 15.987156 0 77.970761 14.413141 185.900815 43.290423l-40.094391-330.573228-103.110007-23.934234 33.453327-66.851653h-0.023001zM367.714591 591.85978c-8.065079-10.578103-29.762291-37.93037-32.710319-41.814408a452.011414 452.011414 0 0 1-26.268257-37.758369c-39.108382-62.42361-47.352462-76.445747-59.523581-104.778023-13.453131-31.359306-20.316198-61.294599-20.316199-93.16891 0-152.793492 126.865239-276.270698 282.859763-276.270698 155.990523 0 282.855762 123.477206 282.855762 276.294698 0 57.30756-19.283188 98.013957-81.853799 197.948933a662.770472 662.770472 0 0 1-39.257384 56.401551l-17.709173 23.171226a2078.015293 2078.015293 0 0 1-116.76114 139.508363l-27.274266 29.910292-27.252267-29.910292A2076.259276 2076.259276 0 0 1 367.715591 591.88578v-0.026z m229.41324-44.718437c2.973029-3.934038 14.853145-19.43119 17.635173-23.117226a923.407018 923.407018 0 0 0 17.955175-24.305237c5.582055-7.990078 11.069108-16.308159 17.486171-26.565259 54.506532-87.06985 70.61769-121.063182 70.617689-158.790551 0-111.62109-93.391912-202.504978-209.067041-202.504978-115.67813 0-209.070042 90.883888-209.070042 202.480978 0 21.251208 4.621045 41.443405 14.33914 64.071625 10.009098 23.294227 17.635172 36.277354 54.25953 94.743926a378.541697 378.541697 0 0 0 22.236217 31.978312c2.459024 3.196031 24.274237 30.7463 32.883321 42.00841a1987.797412 1987.797412 0 0 0 85.352834 104.045016 1990.234436 1990.234436 0 0 0 85.347833-104.045016h0.024zM511.754998 443.912335c-67.925663 0-122.985201-55.061538-122.985201-122.982201s55.060538-122.982201 122.985201-122.982201c67.920663 0 122.982201 55.061538 122.982201 122.982201S579.675661 443.912335 511.754998 443.912335z m0-49.19248c40.751398 0 73.788721-33.037323 73.78872-73.788721s-33.037323-73.788721-73.78872-73.78872c-40.755398 0-73.793721 33.037323-73.793721 73.78872s33.038323 73.788721 73.793721 73.788721z m0 0" p-id="1511"></path></svg>