<?xml version="1.0" standalone="no"?><!DOCTYPE svg PUBLIC "-//W3C//DTD SVG 1.1//EN" "http://www.w3.org/Graphics/SVG/1.1/DTD/svg11.dtd"><svg t="1512486995187" class="icon" style="" viewBox="0 0 1024 1024" version="1.1" xmlns="http://www.w3.org/2000/svg" p-id="4238" xmlns:xlink="http://www.w3.org/1999/xlink" width="200" height="200"><defs><style type="text/css">@font-face { font-family: TIMES; src: local("TIMES"); font-weight: 400; }
@font-face { font-family: TIMES; font-weight: 400; src: local("Microsoft YaHei UI"), local("Microsoft YaHei"), local("微软雅黑"), local("微軟雅黑"), local("WenQuanYi Micro Hei"), local("Droid Sans Fallback"); unicode-range: U+2E80-9FFF, U+F900-FAFF, U+FE30-FE6F, U+FF00-FFEF, U+1B000-1B0FF, U+20000-2FA1F; }
@font-face { font-family: TIMES; font-weight: bold; src: local("Microsoft YaHei UI"), local("Microsoft YaHei"), local("微软雅黑"), local("微軟雅黑"), local("WenQuanYi Micro Hei"), local("Droid Sans Fallback"); unicode-range: U+2E80-9FFF, U+F900-FAFF, U+FE30-FE6F, U+FF00-FFEF, U+1B000-1B0FF, U+20000-2FA1F; }
@font-face { font-family: TAHOMA; src: local("TAHOMA"); font-weight: 400; }
@font-face { font-family: TAHOMA; font-weight: 400; src: local("Microsoft YaHei UI"), local("Microsoft YaHei"), local("微软雅黑"), local("微軟雅黑"), local("WenQuanYi Micro Hei"), local("Droid Sans Fallback"); unicode-range: U+2E80-9FFF, U+F900-FAFF, U+FE30-FE6F, U+FF00-FFEF, U+1B000-1B0FF, U+20000-2FA1F; }
@font-face { font-family: TAHOMA; font-weight: bold; src: local("Microsoft YaHei UI"), local("Microsoft YaHei"), local("微软雅黑"), local("微軟雅黑"), local("WenQuanYi Micro Hei"), local("Droid Sans Fallback"); unicode-range: U+2E80-9FFF, U+F900-FAFF, U+FE30-FE6F, U+FF00-FFEF, U+1B000-1B0FF, U+20000-2FA1F; }
@font-face { font-family: "MICROSOFT YAHEI"; src: local("MICROSOFT YAHEI"); font-weight: 400; }
@font-face { font-family: "MICROSOFT YAHEI"; font-weight: 400; src: local("Microsoft YaHei UI"), local("Microsoft YaHei"), local("微软雅黑"), local("微軟雅黑"), local("WenQuanYi Micro Hei"), local("Droid Sans Fallback"); unicode-range: U+2E80-9FFF, U+F900-FAFF, U+FE30-FE6F, U+FF00-FFEF, U+1B000-1B0FF, U+20000-2FA1F; }
@font-face { font-family: "MICROSOFT YAHEI"; font-weight: bold; src: local("Microsoft YaHei UI"), local("Microsoft YaHei"), local("微软雅黑"), local("微軟雅黑"), local("WenQuanYi Micro Hei"), local("Droid Sans Fallback"); unicode-range: U+2E80-9FFF, U+F900-FAFF, U+FE30-FE6F, U+FF00-FFEF, U+1B000-1B0FF, U+20000-2FA1F; }
@font-face { font-family: 微软雅黑; src: local("微软雅黑"); font-weight: 400; }
@font-face { font-family: 微软雅黑; font-weight: 400; src: local("Microsoft YaHei UI"), local("Microsoft YaHei"), local("微软雅黑"), local("微軟雅黑"), local("WenQuanYi Micro Hei"), local("Droid Sans Fallback"); unicode-range: U+2E80-9FFF, U+F900-FAFF, U+FE30-FE6F, U+FF00-FFEF, U+1B000-1B0FF, U+20000-2FA1F; }
@font-face { font-family: 微软雅黑; font-weight: bold; src: local("Microsoft YaHei UI"), local("Microsoft YaHei"), local("微软雅黑"), local("微軟雅黑"), local("WenQuanYi Micro Hei"), local("Droid Sans Fallback"); unicode-range: U+2E80-9FFF, U+F900-FAFF, U+FE30-FE6F, U+FF00-FFEF, U+1B000-1B0FF, U+20000-2FA1F; }
@font-face { font-family: TIMES; src: local("TIMES"); font-weight: 700; }
@font-face { font-family: TIMES; font-weight: 700; src: local("Microsoft YaHei UI"), local("Microsoft YaHei"), local("微软雅黑"), local("微軟雅黑"), local("WenQuanYi Micro Hei"), local("Droid Sans Fallback"); unicode-range: U+2E80-9FFF, U+F900-FAFF, U+FE30-FE6F, U+FF00-FFEF, U+1B000-1B0FF, U+20000-2FA1F; }
@font-face { font-family: TIMES; font-weight: bold; src: local("Microsoft YaHei UI"), local("Microsoft YaHei"), local("微软雅黑"), local("微軟雅黑"), local("WenQuanYi Micro Hei"), local("Droid Sans Fallback"); unicode-range: U+2E80-9FFF, U+F900-FAFF, U+FE30-FE6F, U+FF00-FFEF, U+1B000-1B0FF, U+20000-2FA1F; }
@font-face { font-family: TAHOMA; src: local("TAHOMA"); font-weight: 700; }
@font-face { font-family: TAHOMA; font-weight: 700; src: local("Microsoft YaHei UI"), local("Microsoft YaHei"), local("微软雅黑"), local("微軟雅黑"), local("WenQuanYi Micro Hei"), local("Droid Sans Fallback"); unicode-range: U+2E80-9FFF, U+F900-FAFF, U+FE30-FE6F, U+FF00-FFEF, U+1B000-1B0FF, U+20000-2FA1F; }
@font-face { font-family: TAHOMA; font-weight: bold; src: local("Microsoft YaHei UI"), local("Microsoft YaHei"), local("微软雅黑"), local("微軟雅黑"), local("WenQuanYi Micro Hei"), local("Droid Sans Fallback"); unicode-range: U+2E80-9FFF, U+F900-FAFF, U+FE30-FE6F, U+FF00-FFEF, U+1B000-1B0FF, U+20000-2FA1F; }
@font-face { font-family: "MICROSOFT YAHEI"; src: local("MICROSOFT YAHEI"); font-weight: 700; }
@font-face { font-family: "MICROSOFT YAHEI"; font-weight: 700; src: local("Microsoft YaHei UI"), local("Microsoft YaHei"), local("微软雅黑"), local("微軟雅黑"), local("WenQuanYi Micro Hei"), local("Droid Sans Fallback"); unicode-range: U+2E80-9FFF, U+F900-FAFF, U+FE30-FE6F, U+FF00-FFEF, U+1B000-1B0FF, U+20000-2FA1F; }
@font-face { font-family: "MICROSOFT YAHEI"; font-weight: bold; src: local("Microsoft YaHei UI"), local("Microsoft YaHei"), local("微软雅黑"), local("微軟雅黑"), local("WenQuanYi Micro Hei"), local("Droid Sans Fallback"); unicode-range: U+2E80-9FFF, U+F900-FAFF, U+FE30-FE6F, U+FF00-FFEF, U+1B000-1B0FF, U+20000-2FA1F; }
@font-face { font-family: 微软雅黑; src: local("微软雅黑"); font-weight: 700; }
@font-face { font-family: 微软雅黑; font-weight: 700; src: local("Microsoft YaHei UI"), local("Microsoft YaHei"), local("微软雅黑"), local("微軟雅黑"), local("WenQuanYi Micro Hei"), local("Droid Sans Fallback"); unicode-range: U+2E80-9FFF, U+F900-FAFF, U+FE30-FE6F, U+FF00-FFEF, U+1B000-1B0FF, U+20000-2FA1F; }
@font-face { font-family: 微软雅黑; font-weight: bold; src: local("Microsoft YaHei UI"), local("Microsoft YaHei"), local("微软雅黑"), local("微軟雅黑"), local("WenQuanYi Micro Hei"), local("Droid Sans Fallback"); unicode-range: U+2E80-9FFF, U+F900-FAFF, U+FE30-FE6F, U+FF00-FFEF, U+1B000-1B0FF, U+20000-2FA1F; }
* { text-shadow: transparent 0px 0px 0px, rgba(0, 0, 0, 0.68) 0px 0px 0px !important; }
</style></defs><path d="M511.351467 22.766933c-271.7696 0-492.091733 220.322133-492.091733 492.117333C19.259733 786.653867 239.5904 1006.933333 511.351467 1006.933333c103.936 0 200.3712-32.213333 279.825067-87.236267-0.1792-0.0512-0.324267-0.136533-0.512-0.1792 8.055467-6.5024 13.226667-16.4352 13.226667-27.5968 0-19.541333-15.829333-35.3792-35.421867-35.3792-10.658133 0-20.2752 4.7104-26.769067 12.228267 0-0.0512-0.0512-0.145067-0.0512-0.1792-66.090667 42.965333-144.989867 67.9168-229.666133 67.9168-233.233067 0-422.254933-189.064533-422.254933-422.254933C89.745067 281.0368 278.7584 91.989333 512 91.989333c233.1904 0 422.203733 189.038933 422.203733 422.2464 0 95.752533-31.8976 184.072533-85.5808 254.9248-7.278933 6.5024-11.904 15.931733-11.904 26.4192 0 19.5328 15.880533 35.413333 35.421867 35.413333 9.105067 0 17.390933-3.4304 23.662933-9.096533 0.042667 0.042667 0.042667 0.085333 0.042667 0.085333 0.093867-0.085333 0.1792-0.221867 0.273067-0.315733 2.884267-2.696533 5.307733-5.819733 7.185067-9.2928 62.839467-82.6624 100.138667-185.728 100.138667-297.540267C1003.451733 243.089067 783.121067 22.766933 511.351467 22.766933L511.351467 22.766933zM511.351467 22.766933" p-id="4239"></path><path d="M628.906667 625.681067c6.382933-30.199467 9.4464-60.7744 9.659733-91.434667L543.735467 534.2464l0 101.051733C572.270933 634.7008 600.6528 631.552 628.906667 625.681067L628.906667 625.681067 628.906667 625.681067 628.906667 625.681067zM506.914133 634.564267 506.914133 534.2464 403.7376 534.2464c0.162133 29.098667 2.9952 58.077867 8.712533 86.766933C444.168533 628.2496 475.682133 632.874667 506.914133 634.564267L506.914133 634.564267 506.914133 634.564267 506.914133 634.564267 506.914133 634.564267zM543.735467 401.390933l0 96.213333 93.687467 0c-1.962667-29.0304-6.434133-58.231467-13.2096-87.637333C597.5296 404.701867 570.743467 401.928533 543.735467 401.390933L543.735467 401.390933 543.735467 401.390933 543.735467 401.390933 543.735467 401.390933zM695.867733 391.552c-5.495467-7.150933-11.537067-13.909333-17.92-20.283733-10.3424-10.299733-21.742933-19.575467-34.005333-27.562667 3.754667 11.818667 7.287467 23.7056 10.3936 35.5584C668.253867 382.7456 682.094933 386.773333 695.867733 391.552L695.867733 391.552 695.867733 391.552 695.867733 391.552 695.867733 391.552zM739.003733 497.604267c-2.1248-19.259733-6.9376-37.751467-13.909333-55.1168-20.343467-9.224533-40.797867-16.7936-61.346133-22.8352 5.162667 26.120533 8.695467 52.036267 10.368 77.952L739.003733 497.604267 739.003733 497.604267 739.003733 497.604267zM727.0144 593.237333c2.0736-5.666133 3.908267-11.5712 5.5296-17.527467 2.3552-8.738133 4.113067-17.664 5.376-26.461867l0.2048-1.826133c0.341333-2.696533 0.6144-5.444267 0.8704-8.192l0.622933-0.964267c0.136533-1.271467 0.196267-2.653867 0.273067-4.0192L675.157333 534.2464c-0.119467 27.3152-2.423467 54.459733-7.022933 81.416533C687.854933 609.664 707.464533 602.248533 727.0144 593.237333L727.0144 593.237333 727.0144 593.237333 727.0144 593.237333 727.0144 593.237333zM647.057067 695.944533c3.268267-2.193067 6.382933-4.445867 9.472-6.775467 7.364267-5.632 14.395733-11.767467 20.8896-18.346667 8.558933-8.465067 16.315733-17.664 23.313067-27.4688-13.7472 4.898133-27.554133 9.1136-41.4208 12.731733C655.914667 669.44 651.767467 682.717867 647.057067 695.944533L647.057067 695.944533 647.057067 695.944533 647.057067 695.944533 647.057067 695.944533zM543.735467 732.322133c9.591467-0.725333 19.089067-2.107733 28.305067-4.113067l1.399467-0.324267 0.657067-0.1792c7.995733-1.732267 15.7952-4.027733 23.415467-6.724267 8.413867-18.670933 15.530667-37.341867 21.2736-56.157867-24.874667 4.215467-49.937067 6.5536-75.0592 6.954667L543.726933 732.322133 543.735467 732.322133 543.735467 732.322133 543.735467 732.322133zM442.385067 715.5712c9.386667 4.027733 19.1744 7.458133 29.431467 10.154667 9.8816 2.6624 19.797333 4.5824 29.678933 5.768533l0 0c1.809067 0.1792 3.6608 0.366933 5.4272 0.546133l0-60.919467c-28.125867-1.416533-56.430933-5.034667-84.7616-10.709333C427.579733 678.920533 434.304 697.2672 442.385067 715.5712L442.385067 715.5712 442.385067 715.5712 442.385067 715.5712 442.385067 715.5712zM352.930133 642.901333c1.7664 2.56 3.6352 5.162667 5.6064 7.645867 5.649067 7.3216 11.784533 14.276267 18.312533 20.821333 4.625067 4.5312 9.4208 8.968533 14.4384 13.0816-3.6608-11.067733-6.843733-22.1952-9.659733-33.408C372.087467 648.5248 362.513067 645.828267 352.930133 642.901333L352.930133 642.901333 352.930133 642.901333 352.930133 642.901333 352.930133 642.901333zM314.871467 534.2464c0.6912 10.9824 2.176 21.6832 4.420267 32.085333l0.324267 1.314133 0.162133 0.733867c2.1504 9.480533 4.983467 18.816 8.4224 27.784533 15.104 5.4528 30.139733 10.3936 45.192533 14.779733-4.138667-25.4464-6.178133-50.986667-6.272-76.6976L314.871467 534.2464 314.871467 534.2464 314.871467 534.2464zM547.464533 360.977067l-152.0128 42.999467 9.787733-38.7584c-88.354133-2.517333-165.4016 46.165333-175.112533 154.922667 2.909867-135.099733 72.721067-239.5136 196.667733-240.3328l9.173333-36.155733 111.470933 117.2992 0.0256 0L547.464533 360.977067zM494.011733 783.9488l-1.28-0.1792-1.237333-0.1792c-29.405867-3.985067-57.301333-12.714667-82.8416-25.437867l-1.0752-0.546133-1.442133-0.733867c-35.626667-18.218667-65.928533-43.8016-89.4464-74.4192-23.569067-30.574933-40.5504-66.4064-48.9472-105.412267l-0.366933-1.6896-0.1792-0.827733c-1.877333-9.198933-3.268267-18.397867-4.206933-27.784533l2.107733-23.4752c2.107733-23.5008 7.9616-43.904 17.297067-61.064533 17.297067-30.805333 45.448533-51.0208 82.082133-58.973867l-6.8608 27.264c-8.8832 2.7904-17.757867 5.777067-26.666667 8.9344-3.6096 8.635733-6.7072 17.6896-9.173333 26.9568-2.679467 9.8816-4.5568 19.771733-5.794133 29.568l0 0-0.136533 1.655467 52.283733 0c1.1008-16.622933 2.909867-33.3056 5.495467-50.013867l38.971733-10.990933c-3.729067 20.437333-6.382933 40.7296-7.7312 60.996267l102.058667 0L506.922667 409.873067l110.045867-31.1808-10.4192-12.450133L505.2672 257.4848c18.244267-1.536 36.8384-1.1776 55.517867 1.2032l1.322667 0.1792 1.194667 0.170667c58.999467 7.918933 111.812267 35.1744 151.8592 75.067733 35.831467 35.703467 61.4656 81.5104 72.200533 132.753067l0.341333 3.754667c5.265067 26.990933 6.340267 55.1168 2.670933 83.490133l-0.162133 1.271467-0.1792 1.2032c-3.959467 29.3376-12.765867 57.156267-25.557333 82.602667l-0.546133 1.015467-0.733867 1.467733c-18.218667 35.5072-43.9552 65.7152-74.5984 89.147733-30.6944 23.5264-66.645333 40.456533-105.813333 48.836267l-1.621333 0.273067-0.6656 0.1792 0.7168 0.4608-0.4608 0.093867C552.7296 786.3808 523.434667 787.6608 494.011733 783.9488L494.011733 783.9488 494.011733 783.9488 494.011733 783.9488zM494.011733 783.9488" p-id="4240"></path></svg>