<?xml version="1.0" standalone="no"?><!DOCTYPE svg PUBLIC "-//W3C//DTD SVG 1.1//EN" "http://www.w3.org/Graphics/SVG/1.1/DTD/svg11.dtd"><svg t="1533053334738" class="icon" style="" viewBox="0 0 1025 1024" version="1.1" xmlns="http://www.w3.org/2000/svg" p-id="1258" xmlns:xlink="http://www.w3.org/1999/xlink" width="200.1953125" height="200"><defs><style type="text/css">* { text-shadow: transparent 0px 0px 0px, rgba(0, 0, 0, 0.68) 0px 0px 0px !important; }
</style></defs><path d="M538.851533 312.32v173.568h346.624c18.432 1.024 27.648 10.752 27.648 29.184v196.096h83.968c18.432 0 28.672 9.728 28.672 28.16v221.696c0 18.432-10.24 27.648-28.672 27.648h-219.136c-18.944 0-28.672-9.216-28.672-28.672v-219.136c0-19.968 9.728-29.184 29.696-29.696h82.432v-172.544h-322.048v172.544h76.8c26.624 0 34.816 8.192 34.816 34.816v209.92c0 24.576-8.192 32.768-32.768 32.768H407.267533c-24.064 0-32.768-8.704-32.768-32.768v-210.944c0-24.576 9.216-33.28 34.304-33.28H486.627533v-172.032H164.579533V711.68H251.107533c15.36 1.024 25.6 10.752 25.6 26.112V962.56c0 15.872-10.24 26.112-26.624 26.112H27.363533c-17.408 0-27.136-10.24-27.136-29.184-0.512-23.04 0-46.08 0-68.608v-145.92c0-24.576 9.216-33.28 33.792-33.28H112.867533v-13.824-176.128c0-28.16 7.68-35.84 36.352-35.84h338.944V312.32H403.171533c-15.36 0-26.624-9.216-26.624-23.552-0.512-76.288-0.512-153.088 0-229.376 0-14.848 11.264-24.064 26.112-24.064h223.744c15.36 0 26.112 10.24 26.112 25.6 0.512 75.264 0.512 150.528 0 226.304 0 15.872-10.752 25.088-27.136 25.6-24.064 0.512-48.128 0-72.192 0-6.144-0.512-9.728-0.512-14.336-0.512z m-112.64-52.224h172.032V87.552H426.211533v172.544z m-203.264 503.808H50.915533v172.544h172.032v-172.544z m375.808 0H426.723533v172.544h172.032v-172.544z m203.776 0v172.544h171.008v-172.544h-171.008z" p-id="1259" fill="#1296db"></path></svg>